# xmcd
#
# Track frame offsets:
#	150
#	12270
#	28665
#	44176
#	68630
#
# Disc length: 1177 seconds
#
# Revision: 1
# Processed by: cddbd v1.5.2PL0 Copyright (c) Steve Scherf et al.
# Submitted via: EZCDAudioConverter 8.0.7.1
#
DISCID=3e049705
DTITLE=Joshua Cook and the Key of Now - Digamma Junction
DYEAR=2019
DGENRE=Alternative Rock
TTITLE0=Believe
TTITLE1=A Hole Where My Heart Should Be
TTITLE2=River Song
TTITLE3=Call On Me
TTITLE4=A Prayer for You
EXTD=
EXTT0=
EXTT1=
EXTT2=
EXTT3=
EXTT4=
PLAYORDER=
